<svg width="166" height="58" viewBox="0 0 166 58" fill="none" xmlns="http://www.w3.org/2000/svg">
<path d="M67.5064 33.3325C68.1274 30.9267 66.2962 28.4008 63.4162 27.6907C60.5362 26.9807 57.698 28.3554 57.077 30.7612C56.4559 33.167 58.2872 35.6929 61.1672 36.403C64.0472 37.113 66.8853 35.7383 67.5064 33.3325Z" fill="url(#paint0_linear_1_11)" stroke="url(#paint1_linear_1_11)" stroke-width="3" stroke-linecap="round" stroke-linejoin="round"/>
<path d="M67.5057 33.3324L72.5143 13.8767C71.6838 17.0909 78.3727 15.516 77.5807 18.5843" stroke="url(#paint2_linear_1_11)" stroke-width="3" stroke-linecap="round" stroke-linejoin="round"/>
<path d="M67.2307 23.3886C65.1956 22.2041 62.7984 21.7587 60.4606 22.131C58.1227 22.5032 55.9941 23.6691 54.449 25.4236C52.9039 27.1781 52.0414 29.4089 52.0131 31.7236C51.9848 34.0382 52.7926 36.2885 54.2944 38.0786C55.7962 39.8686 57.8958 41.0839 60.2238 41.5105C62.5519 41.9371 64.9594 41.5478 67.0227 40.4111C69.0861 39.2744 70.6733 37.463 71.505 35.2956C72.3368 33.1282 72.3598 30.7436 71.5702 28.5612" stroke="url(#paint3_linear_1_11)" stroke-width="3" stroke-linecap="round" stroke-linejoin="round"/>
<path d="M68.4397 18.6918C65.1015 17.1438 61.294 16.8623 57.7555 17.9018C54.2169 18.9413 51.1994 21.2278 49.2878 24.3181C47.3762 27.4083 46.7068 31.082 47.4094 34.6272C48.1119 38.1723 50.1364 41.3362 53.0902 43.5056C56.0441 45.6749 59.717 46.6951 63.3968 46.3685C67.0766 46.0418 70.5012 44.3915 73.0068 41.7375C75.5123 39.0835 76.9202 35.6149 76.9576 32.0041C76.995 28.3933 75.6592 24.8975 73.2092 22.1945" stroke="url(#paint4_linear_1_11)" stroke-width="3" stroke-linecap="round" stroke-linejoin="round"/>
<path d="M62.0625 12.5911C56.8355 12.5911 51.8226 14.6204 48.1266 18.2324C44.4306 21.8444 42.3542 26.7434 42.3542 31.8516" stroke="url(#paint5_linear_1_11)" stroke-width="3" stroke-linecap="round" stroke-linejoin="round"/>
<path d="M37.45 29.35V31.15C37.45 35.4833 35.9 39.15 32.8 42.15C29.7 45.1167 25.55 46.6 20.35 46.6C15.05 46.6 10.6667 44.85 7.2 41.35C3.73333 37.85 2 33.5667 2 28.5C2 23.4333 3.73333 19.15 7.2 15.65C10.6667 12.15 15.05 10.4 20.35 10.4C23.5833 10.4 26.55 11.1833 29.25 12.75C31.95 14.3167 34.0333 16.4 35.5 19L32.4 20.8C31.3 18.6667 29.6667 16.9667 27.5 15.7C25.3333 14.4333 22.95 13.8 20.35 13.8C15.9833 13.8 12.4167 15.2167 9.65 18.05C6.88333 20.8833 5.5 24.3667 5.5 28.5C5.5 32.6333 6.88333 36.1167 9.65 38.95C12.4167 41.7833 15.9833 43.2 20.35 43.2C24.2833 43.2 27.4333 42.2167 29.8 40.25C32.1667 38.25 33.5167 35.7167 33.85 32.65H19.95V29.35H37.45Z" fill="url(#paint6_linear_1_11)"/>
<path d="M109.3 46L106.05 37.4H89.45L86.2 46H82.5L95.95 11H99.55L113 46H109.3ZM90.7 34.1H104.8L97.75 15.35L90.7 34.1ZM120.994 42.7H136.994V46H117.494V11H120.994V42.7ZM152.029 46.6C148.829 46.6 146.079 45.85 143.779 44.35C141.513 42.8167 139.929 40.7167 139.029 38.05L142.029 36.3C142.663 38.4667 143.829 40.1667 145.529 41.4C147.229 42.6 149.413 43.2 152.079 43.2C154.679 43.2 156.696 42.6333 158.129 41.5C159.596 40.3333 160.329 38.8 160.329 36.9C160.329 35.0667 159.663 33.6833 158.329 32.75C156.996 31.8167 154.796 30.85 151.729 29.85C148.096 28.65 145.696 27.6833 144.529 26.95C141.863 25.35 140.529 23.0333 140.529 20C140.529 17.0333 141.563 14.7 143.629 13C145.696 11.2667 148.246 10.4 151.279 10.4C154.013 10.4 156.379 11.1167 158.379 12.55C160.379 13.95 161.863 15.75 162.829 17.95L159.879 19.6C158.279 15.7333 155.413 13.8 151.279 13.8C149.113 13.8 147.363 14.3333 146.029 15.4C144.696 16.4667 144.029 17.95 144.029 19.85C144.029 21.5833 144.629 22.8833 145.829 23.75C147.029 24.6167 149.013 25.5 151.779 26.4C153.046 26.8333 153.946 27.15 154.479 27.35C155.046 27.5167 155.846 27.8167 156.879 28.25C157.946 28.65 158.729 29.0167 159.229 29.35C159.729 29.65 160.329 30.0833 161.029 30.65C161.763 31.1833 162.279 31.7333 162.579 32.3C162.913 32.8333 163.196 33.5 163.429 34.3C163.696 35.0667 163.829 35.9 163.829 36.8C163.829 39.7667 162.746 42.15 160.579 43.95C158.413 45.7167 155.563 46.6 152.029 46.6Z" fill="url(#paint7_linear_1_11)"/>
<defs>
<linearGradient id="paint0_linear_1_11" x1="57.077" y1="30.7612" x2="67.4771" y2="33.4459" gradientUnits="userSpaceOnUse">
<stop stop-color="#FC00FF"/>
<stop offset="1" stop-color="#00DBDE"/>
</linearGradient>
<linearGradient id="paint1_linear_1_11" x1="57.077" y1="30.7612" x2="67.4771" y2="33.4459" gradientUnits="userSpaceOnUse">
<stop stop-color="#FC00FF"/>
<stop offset="1" stop-color="#00DBDE"/>
</linearGradient>
<linearGradient id="paint2_linear_1_11" x1="72.5759" y1="13.8767" x2="72.5759" y2="33.3324" gradientUnits="userSpaceOnUse">
<stop stop-color="#FC00FF"/>
<stop offset="1" stop-color="#00DBDE"/>
</linearGradient>
<linearGradient id="paint3_linear_1_11" x1="62.0792" y1="22.0029" x2="62.0792" y2="41.679" gradientUnits="userSpaceOnUse">
<stop stop-color="#FC00FF"/>
<stop offset="1" stop-color="#00DBDE"/>
</linearGradient>
<linearGradient id="paint4_linear_1_11" x1="62.0479" y1="17.285" x2="62.0479" y2="46.4282" gradientUnits="userSpaceOnUse">
<stop stop-color="#FC00FF"/>
<stop offset="1" stop-color="#00DBDE"/>
</linearGradient>
<linearGradient id="paint5_linear_1_11" x1="52.2083" y1="12.5911" x2="52.2083" y2="31.8516" gradientUnits="userSpaceOnUse">
<stop stop-color="#FC00FF"/>
<stop offset="1" stop-color="#00DBDE"/>
</linearGradient>
<linearGradient id="paint6_linear_1_11" x1="20" y1="0" x2="20" y2="58" gradientUnits="userSpaceOnUse">
<stop stop-color="#FC00FF"/>
<stop offset="1" stop-color="#00DBDE"/>
</linearGradient>
<linearGradient id="paint7_linear_1_11" x1="124" y1="0" x2="124" y2="58" gradientUnits="userSpaceOnUse">
<stop stop-color="#FC00FF"/>
<stop offset="1" stop-color="#00DBDE"/>
</linearGradient>
</defs>
</svg>
